<?xml version="1.0" encoding="UTF-8" standalone="no"?><!DOCTYPE svg PUBLIC "-//W3C//DTD SVG 1.1//EN" "http://www.w3.org/Graphics/SVG/1.1/DTD/svg11.dtd"><svg width="100%" height="100%" viewBox="0 0 85 89" version="1.1" xmlns="http://www.w3.org/2000/svg" xmlns:xlink="http://www.w3.org/1999/xlink" xml:space="preserve" xmlns:serif="http://www.serif.com/" style="fill-rule:evenodd;clip-rule:evenodd;stroke-linejoin:round;stroke-miterlimit:2;"><g id="Artboard1" transform="matrix(1,0,0,1,-2,-0.999634)"><rect x="2" y="1" width="84.64" height="88.807" style="fill:none;"/><clipPath id="_clip1"><rect x="2" y="1" width="84.64" height="88.807"/></clipPath><g clip-path="url(#_clip1)"><g id="Layer1" transform="matrix(1,0,0,1,2,0.999634)"><g transform="matrix(4.166667,0,0,4.166667,-8.333333,-3.165509)"><path d="M11,2C11.264,2 11.525,2.013 11.783,2.036C11.442,2.634 11.202,3.297 11.084,4.002C11.056,4.001 11.028,4 11,4C7.133,4 4,7.132 4,11C4,14.867 7.133,18 11,18C12.896,18 14.615,17.247 15.875,16.024L16.024,15.875C17.247,14.614 18,12.895 18,11C18,10.971 17.997,10.943 17.997,10.915C18.702,10.797 19.364,10.556 19.963,10.215C19.985,10.474 20,10.735 20,11C20,13.123 19.263,15.077 18.031,16.617L22.314,20.899L20.899,22.313L16.617,18.031C15.077,19.263 13.124,20 11,20C6.032,20 2,15.968 2,11C2,6.032 6.032,2 11,2Z"/><path d="M11,2C11.264,2 11.525,2.013 11.783,2.036C11.442,2.634 11.202,3.297 11.084,4.002C11.056,4.001 11.028,4 11,4C7.133,4 4,7.132 4,11C4,14.867 7.133,18 11,18C12.896,18 14.615,17.247 15.875,16.024L16.024,15.875C17.247,14.614 18,12.895 18,11C18,10.971 17.997,10.943 17.997,10.915C18.702,10.797 19.364,10.556 19.963,10.215C19.985,10.474 20,10.735 20,11C20,13.123 19.263,15.077 18.031,16.617L22.314,20.899L20.899,22.313L16.617,18.031C15.077,19.263 13.124,20 11,20C6.032,20 2,15.968 2,11C2,6.032 6.032,2 11,2ZM18.15,11.04C18.139,12.96 17.372,14.701 16.131,15.98L15.98,16.131L15.979,16.132C14.692,17.381 12.936,18.15 11,18.15C7.05,18.15 3.85,14.95 3.85,11C3.85,7.063 7.027,3.872 10.959,3.85C11.071,3.254 11.27,2.689 11.541,2.168C11.362,2.156 11.182,2.15 11,2.15C6.115,2.15 2.15,6.115 2.15,11C2.15,15.885 6.115,19.85 11,19.85C13.089,19.85 15.009,19.125 16.523,17.914L16.628,17.83L20.899,22.101L22.101,20.899L17.83,16.628L17.914,16.523C19.126,15.009 19.85,13.088 19.85,11C19.85,10.818 19.843,10.637 19.831,10.458C19.31,10.729 18.745,10.927 18.15,11.04Z" style="fill:rgb(14,14,14);"/></g><g transform="matrix(4.166667,0,0,4.166667,-8.333333,-3.165509)"><path d="M16.529,1.319C16.706,0.893 17.294,0.893 17.471,1.319L17.724,1.93C18.156,2.973 18.962,3.806 19.975,4.256L20.692,4.576C21.103,4.759 21.103,5.356 20.692,5.539L19.933,5.877C18.945,6.316 18.153,7.119 17.714,8.128L17.467,8.693C17.286,9.107 16.714,9.107 16.533,8.693L16.287,8.128C15.848,7.119 15.055,6.316 14.067,5.877L13.308,5.539C12.897,5.356 12.897,4.759 13.308,4.576L14.025,4.256C15.038,3.806 15.845,2.973 16.276,1.93L16.529,1.319Z" style="fill:rgb(204,42,54);fill-opacity:0.97;stroke:rgb(204,42,54);stroke-opacity:0.69;stroke-width:0.24px;"/></g></g></g></g></svg>